<svg width="32" height="32" viewBox="0 0 32 32" fill="none" xmlns="http://www.w3.org/2000/svg">
<g clip-path="url(#clip0_10042_373)">
<path d="M6.8125 20.1798C6.8125 22.0123 5.318 23.5091 3.48525 23.5091C1.6525 23.5091 0.15625 22.0123 0.15625 20.1798C0.15625 18.3473 1.653 16.8506 3.4855 16.8506H6.81275L6.8125 20.1798ZM8.48975 20.1798C8.48975 18.3473 9.9865 16.8506 11.819 16.8506C13.6515 16.8506 15.1482 18.3471 15.1482 20.1798V28.5136C15.1482 30.3461 13.6517 31.8428 11.819 31.8428C9.9865 31.8428 8.48975 30.3461 8.48975 28.5136V20.1798Z" fill="#DE1C59"/>
<path d="M11.819 6.81348C9.9865 6.81348 8.48975 5.31898 8.48975 3.48623C8.48975 1.65348 9.9865 0.157227 11.819 0.157227C13.6515 0.157227 15.1482 1.65398 15.1482 3.48648V6.81373L11.819 6.81348ZM11.819 8.49073C13.6515 8.49073 15.1482 9.98748 15.1482 11.82C15.1482 13.6525 13.6517 15.1492 11.819 15.1492H3.48525C1.65275 15.1492 0.15625 13.6527 0.15625 11.82C0.15625 9.98748 1.653 8.49073 3.4855 8.49073H11.819Z" fill="#35C5F0"/>
<path d="M25.1873 11.82C25.1873 9.98748 26.6818 8.49073 28.5146 8.49073C30.3473 8.49073 31.8438 9.98748 31.8438 11.82C31.8438 13.6525 30.3471 15.1492 28.5146 15.1492H25.1873V11.82ZM23.5101 11.82C23.5101 13.6525 22.0133 15.1492 20.1808 15.1492C18.3483 15.1492 16.8516 13.6527 16.8516 11.82V3.48623C16.8516 1.65373 18.3481 0.157227 20.1808 0.157227C22.0133 0.157227 23.5101 1.65398 23.5101 3.48648V11.82Z" fill="#2EB57D"/>
<path d="M20.1808 25.1863C22.0133 25.1863 23.5101 26.6808 23.5101 28.5136C23.5101 30.3463 22.0133 31.8428 20.1808 31.8428C18.3483 31.8428 16.8516 30.3461 16.8516 28.5136V25.1863H20.1808ZM20.1808 23.5091C18.3483 23.5091 16.8516 22.0123 16.8516 20.1798C16.8516 18.3473 18.3481 16.8506 20.1808 16.8506H28.5146C30.3471 16.8506 31.8438 18.3471 31.8438 20.1798C31.8438 22.0123 30.3471 23.5091 28.5146 23.5091H20.1808Z" fill="#EBB02E"/>
</g>
<defs>
<clipPath id="clip0_10042_373">
<rect width="32" height="32" fill="white"/>
</clipPath>
</defs>
</svg>
